<svg width="80" height="80" viewBox="0 0 80 80" fill="none" xmlns="http://www.w3.org/2000/svg">
  <circle cx="40" cy="40" r="40" fill="#FDF4E3"/>
  <ellipse cx="40" cy="36" rx="15" ry="17" fill="#8B5A2B"/>
  <ellipse cx="40" cy="75" rx="22" ry="14" fill="#EC4899"/>
  <path d="M18 38C18 24 28 14 40 14C52 14 62 24 62 38C62 46 58 52 52 50C44 47 40 50 40 50C40 50 36 47 28 50C22 52 18 46 18 38Z" fill="#1A0A00"/>
  <ellipse cx="33" cy="34" rx="3" ry="3.5" fill="white"/>
  <ellipse cx="47" cy="34" rx="3" ry="3.5" fill="white"/>
  <circle cx="33" cy="35" r="2" fill="#2D1810"/>
  <circle cx="47" cy="35" r="2" fill="#2D1810"/>
  <circle cx="34" cy="34" r="0.8" fill="white"/>
  <circle cx="48" cy="34" r="0.8" fill="white"/>
  <ellipse cx="40" cy="42" rx="2.5" ry="1.2" fill="#7A4A2B"/>
  <path d="M35 47C35 47 37.5 50 40 50C42.5 50 45 47 45 47" stroke="#6A3A1B" stroke-width="1.5" stroke-linecap="round"/>
  <path d="M27 30C27 30 29 27 33 27" stroke="#1A0A00" stroke-width="1.5" stroke-linecap="round"/>
  <path d="M53 30C53 30 51 27 47 27" stroke="#1A0A00" stroke-width="1.5" stroke-linecap="round"/>
  <circle cx="24" cy="22" r="4" fill="#FFD700"/>
  <circle cx="56" cy="22" r="4" fill="#FFD700"/>
  <circle cx="24" cy="22" r="2" fill="#FFA500"/>
  <circle cx="56" cy="22" r="2" fill="#FFA500"/>
</svg>
