<svg width="400" height="400" viewBox="0 0 400 400" fill="none" xmlns="http://www.w3.org/2000/svg">
  <defs>
    <linearGradient id="bg" x1="0" y1="0" x2="1" y2="1">
      <stop offset="0%" stop-color="#E2E8F0"/>
      <stop offset="100%" stop-color="#F8FAFC"/>
    </linearGradient>
  </defs>
  <rect width="400" height="400" rx="48" fill="url(#bg)"/>
  <rect x="105" y="235" width="190" height="150" rx="70" fill="#14B8A6"/>
  <rect x="135" y="255" width="130" height="110" rx="55" fill="#0D9488"/>
  <circle cx="200" cy="155" r="70" fill="#F1C4A3"/>
  <path d="M115 168C115 110 158 78 200 78C242 78 285 110 285 168V195C285 218 268 230 246 226C230 222 214 208 200 208C186 208 170 222 154 226C132 230 115 218 115 195V168Z" fill="#0F172A"/>
  <path d="M150 128C170 112 187 104 200 104C213 104 230 112 250 128" stroke="#111827" stroke-width="10" stroke-linecap="round"/>
</svg>
