<svg width="80" height="80" viewBox="0 0 80 80" fill="none" xmlns="http://www.w3.org/2000/svg">
  <circle cx="40" cy="40" r="40" fill="#DCFCE7"/>
  <circle cx="40" cy="34" r="18" fill="#FDDCAB"/>
  <ellipse cx="40" cy="72" rx="24" ry="16" fill="#22C55E"/>
  <path d="M26 26C26 18 32 12 40 12C48 12 54 18 54 26V28C54 28 48 30 40 30C32 30 26 28 26 28V26Z" fill="#0F172A"/>
  <circle cx="34" cy="32" r="2.5" fill="#1F2937"/>
  <circle cx="46" cy="32" r="2.5" fill="#1F2937"/>
  <path d="M35 40C35 40 37 43 40 43C43 43 45 40 45 40" stroke="#1F2937" stroke-width="2" stroke-linecap="round"/>
  <rect x="32" y="18" width="16" height="5" rx="2" fill="#0F172A"/>
</svg>
