<svg width="400" height="400" viewBox="0 0 400 400" fill="none" xmlns="http://www.w3.org/2000/svg">
  <defs>
    <linearGradient id="bg" x1="0" y1="0" x2="1" y2="1">
      <stop offset="0%" stop-color="#DCFCE7"/>
      <stop offset="100%" stop-color="#F0FDF4"/>
    </linearGradient>
  </defs>
  <rect width="400" height="400" rx="48" fill="url(#bg)"/>
  <rect x="105" y="235" width="190" height="150" rx="70" fill="#22C55E"/>
  <rect x="135" y="255" width="130" height="110" rx="55" fill="#16A34A"/>
  <circle cx="200" cy="155" r="70" fill="#F3C6A6"/>
  <path d="M115 165C115 108 158 78 200 78C242 78 285 108 285 165V190C285 215 268 228 246 224C230 220 214 205 200 205C186 205 170 220 154 224C132 228 115 215 115 190V165Z" fill="#0F172A"/>
  <path d="M155 132C172 118 186 112 200 112C214 112 228 118 245 132" stroke="#111827" stroke-width="10" stroke-linecap="round"/>
</svg>
