<svg width="80" height="80" viewBox="0 0 80 80" fill="none" xmlns="http://www.w3.org/2000/svg">
  <circle cx="40" cy="40" r="40" fill="#FEF3E2"/>
  <ellipse cx="40" cy="36" rx="15" ry="17" fill="#C68B59"/>
  <ellipse cx="40" cy="75" rx="22" ry="14" fill="#10B981"/>
  <path d="M16 36C16 22 26 12 40 12C54 12 64 22 64 36C64 44 60 50 54 48C46 45 40 48 40 48C40 48 34 45 26 48C20 50 16 44 16 36Z" fill="#1A0F00"/>
  <path d="M20 34C20 24 28 16 40 16C52 16 60 24 60 34C60 40 56 44 50 42C44 39 40 42 40 42C40 42 36 39 30 42C24 44 20 40 20 34Z" fill="#0D0800"/>
  <ellipse cx="33" cy="34" rx="3" ry="3.5" fill="white"/>
  <ellipse cx="47" cy="34" rx="3" ry="3.5" fill="white"/>
  <circle cx="33" cy="35" r="2" fill="#3D2314"/>
  <circle cx="47" cy="35" r="2" fill="#3D2314"/>
  <circle cx="34" cy="34" r="0.8" fill="white"/>
  <circle cx="48" cy="34" r="0.8" fill="white"/>
  <ellipse cx="40" cy="42" rx="2.5" ry="1.2" fill="#B07A4A"/>
  <path d="M35 47C35 47 37.5 50 40 50C42.5 50 45 47 45 47" stroke="#A06A3A" stroke-width="1.5" stroke-linecap="round"/>
  <path d="M28 30C28 30 30 28 33 28" stroke="#0D0800" stroke-width="1.5" stroke-linecap="round"/>
  <path d="M52 30C52 30 50 28 47 28" stroke="#0D0800" stroke-width="1.5" stroke-linecap="round"/>
  <circle cx="28" cy="38" r="3" fill="#C68B59" opacity="0.5"/>
  <circle cx="52" cy="38" r="3" fill="#C68B59" opacity="0.5"/>
</svg>
