<svg width="400" height="400" viewBox="0 0 400 400" fill="none" xmlns="http://www.w3.org/2000/svg">
  <defs>
    <linearGradient id="bg" x1="0" y1="0" x2="1" y2="1">
      <stop offset="0%" stop-color="#FEF3C7"/>
      <stop offset="100%" stop-color="#FFF7ED"/>
    </linearGradient>
  </defs>
  <rect width="400" height="400" rx="48" fill="url(#bg)"/>
  <rect x="105" y="235" width="190" height="150" rx="70" fill="#F97316"/>
  <rect x="135" y="255" width="130" height="110" rx="55" fill="#EA580C"/>
  <circle cx="200" cy="155" r="70" fill="#F4C7A5"/>
  <path d="M115 170C115 108 158 78 200 78C242 78 285 108 285 170V190C285 212 268 224 246 220C230 216 215 205 200 205C185 205 170 216 154 220C132 224 115 212 115 190V170Z" fill="#1F2937"/>
  <path d="M160 195C172 205 186 210 200 210C214 210 228 205 240 195" stroke="#111827" stroke-width="8" stroke-linecap="round"/>
  <path d="M170 230C180 238 190 242 200 242C210 242 220 238 230 230" stroke="#111827" stroke-width="10" stroke-linecap="round"/>
</svg>
