<svg width="80" height="80" viewBox="0 0 80 80" fill="none" xmlns="http://www.w3.org/2000/svg">
  <circle cx="40" cy="40" r="40" fill="#FEF3C7"/>
  <circle cx="40" cy="34" r="18" fill="#D4A574"/>
  <ellipse cx="40" cy="72" rx="24" ry="16" fill="#F97316"/>
  <path d="M24 28C24 18 31 12 40 12C49 12 56 18 56 28V30C56 30 50 32 40 32C30 32 24 30 24 30V28Z" fill="#292524"/>
  <circle cx="34" cy="32" r="2.5" fill="#1F2937"/>
  <circle cx="46" cy="32" r="2.5" fill="#1F2937"/>
  <path d="M35 40C35 40 37 43 40 43C43 43 45 40 45 40" stroke="#1F2937" stroke-width="2" stroke-linecap="round"/>
  <path d="M30 46C30 46 35 50 40 50C45 50 50 46 50 46" stroke="#D4A574" stroke-width="5" stroke-linecap="round"/>
</svg>
