<svg width="80" height="80" viewBox="0 0 80 80" fill="none" xmlns="http://www.w3.org/2000/svg">
  <circle cx="40" cy="40" r="40" fill="#FEE2E2"/>
  <circle cx="40" cy="34" r="18" fill="#D4A574"/>
  <ellipse cx="40" cy="72" rx="24" ry="16" fill="#F43F5E"/>
  <path d="M18 34C18 16 27 6 40 6C53 6 62 16 62 34C62 42 56 46 48 43C42 40 40 44 40 44C40 44 38 40 32 43C24 46 18 42 18 34Z" fill="#1F2937"/>
  <circle cx="34" cy="32" r="2.5" fill="#1F2937"/>
  <circle cx="46" cy="32" r="2.5" fill="#1F2937"/>
  <path d="M35 40C35 40 37 43 40 43C43 43 45 40 45 40" stroke="#1F2937" stroke-width="2" stroke-linecap="round"/>
  <circle cx="40" cy="12" r="4" fill="#DC2626"/>
</svg>
