<svg width="400" height="400" viewBox="0 0 400 400" fill="none" xmlns="http://www.w3.org/2000/svg">
  <defs>
    <linearGradient id="bg" x1="0" y1="0" x2="1" y2="1">
      <stop offset="0%" stop-color="#FFE4E6"/>
      <stop offset="100%" stop-color="#FFF1F2"/>
    </linearGradient>
  </defs>
  <rect width="400" height="400" rx="48" fill="url(#bg)"/>
  <rect x="110" y="235" width="180" height="150" rx="70" fill="#F43F5E"/>
  <rect x="140" y="255" width="120" height="110" rx="55" fill="#E11D48"/>
  <circle cx="200" cy="155" r="70" fill="#F6C3A2"/>
  <path d="M120 170C120 108 158 78 200 78C242 78 280 108 280 170V198C280 222 262 236 240 232C224 228 212 214 200 214C188 214 176 228 160 232C138 236 120 222 120 198V170Z" fill="#1F2937"/>
  <circle cx="200" cy="145" r="6" fill="#DC2626"/>
  <path d="M150 132C170 118 187 112 200 112C213 112 230 118 250 132" stroke="#111827" stroke-width="10" stroke-linecap="round"/>
</svg>
