<svg width="80" height="80" viewBox="0 0 80 80" fill="none" xmlns="http://www.w3.org/2000/svg">
  <circle cx="40" cy="40" r="40" fill="#F0F4F8"/>
  <ellipse cx="40" cy="36" rx="15" ry="17" fill="#FDDCAB"/>
  <ellipse cx="40" cy="75" rx="22" ry="14" fill="#374151"/>
  <path d="M26 22C28 18 33 16 40 16C47 16 52 18 54 22C56 26 54 28 50 26C44 23 40 24 40 24C40 24 36 23 30 26C26 28 24 26 26 22Z" fill="#9CA3AF"/>
  <ellipse cx="33" cy="34" rx="3" ry="3.5" fill="white"/>
  <ellipse cx="47" cy="34" rx="3" ry="3.5" fill="white"/>
  <circle cx="33" cy="35" r="2" fill="#1E3A5F"/>
  <circle cx="47" cy="35" r="2" fill="#1E3A5F"/>
  <circle cx="34" cy="34" r="0.8" fill="white"/>
  <circle cx="48" cy="34" r="0.8" fill="white"/>
  <ellipse cx="40" cy="42" rx="2.5" ry="1.2" fill="#E8B89D"/>
  <path d="M36 47C36 47 38 49 40 49C42 49 44 47 44 47" stroke="#C9907A" stroke-width="1.5" stroke-linecap="round"/>
  <rect x="26" y="30" width="14" height="10" rx="2" stroke="#374151" stroke-width="1.5" fill="none"/>
  <rect x="40" y="30" width="14" height="10" rx="2" stroke="#374151" stroke-width="1.5" fill="none"/>
  <line x1="40" y1="34" x2="40" y2="36" stroke="#374151" stroke-width="1.5"/>
  <line x1="20" y1="34" x2="26" y2="34" stroke="#374151" stroke-width="1.5"/>
  <line x1="54" y1="34" x2="60" y2="34" stroke="#374151" stroke-width="1.5"/>
  <path d="M26 28C26 28 29 26 33 26" stroke="#9CA3AF" stroke-width="1.5" stroke-linecap="round"/>
  <path d="M54 28C54 28 51 26 47 26" stroke="#9CA3AF" stroke-width="1.5" stroke-linecap="round"/>
</svg>
