<svg width="400" height="400" viewBox="0 0 400 400" fill="none" xmlns="http://www.w3.org/2000/svg">
  <defs>
    <linearGradient id="bg" x1="0" y1="0" x2="1" y2="1">
      <stop offset="0%" stop-color="#E0F2FE"/>
      <stop offset="100%" stop-color="#F8FAFC"/>
    </linearGradient>
  </defs>
  <rect width="400" height="400" rx="48" fill="url(#bg)"/>
  <rect x="110" y="235" width="180" height="150" rx="70" fill="#38BDF8"/>
  <rect x="135" y="252" width="130" height="115" rx="60" fill="#0EA5E9"/>
  <circle cx="200" cy="155" r="70" fill="#F7C7A8"/>
  <path d="M120 170C120 110 158 80 200 80C242 80 280 110 280 170V185C280 205 264 215 244 210C228 205 214 195 200 195C186 195 172 205 156 210C136 215 120 205 120 185V170Z" fill="#1F2937"/>
  <path d="M150 128C165 110 183 104 200 104C217 104 236 110 252 128" stroke="#111827" stroke-width="10" stroke-linecap="round"/>
</svg>
