<svg width="1544" height="500" viewBox="0 0 1544 500" fill="none" xmlns="http://www.w3.org/2000/svg">
  <defs>
    <linearGradient id="bg" x1="0" y1="0" x2="1544" y2="500" gradientUnits="userSpaceOnUse">
      <stop stop-color="#FFFFFF"/>
      <stop offset="0.48" stop-color="#F7F8FF"/>
      <stop offset="1" stop-color="#E7E0FF"/>
    </linearGradient>
    <linearGradient id="purple" x1="0" y1="0" x2="1" y2="1">
      <stop stop-color="#7C3AED"/>
      <stop offset="1" stop-color="#3520C8"/>
    </linearGradient>
    <linearGradient id="green" x1="0" y1="0" x2="1" y2="1">
      <stop stop-color="#10B981"/>
      <stop offset="1" stop-color="#059669"/>
    </linearGradient>
    <linearGradient id="photo" x1="0" y1="0" x2="1" y2="1">
      <stop stop-color="#BAE6FD"/>
      <stop offset="0.45" stop-color="#38BDF8"/>
      <stop offset="1" stop-color="#166534"/>
    </linearGradient>
    <filter id="shadow" x="-20%" y="-20%" width="140%" height="150%">
      <feDropShadow dx="0" dy="18" stdDeviation="22" flood-color="#312E81" flood-opacity="0.13"/>
    </filter>
    <filter id="soft" x="-20%" y="-20%" width="140%" height="140%">
      <feDropShadow dx="0" dy="8" stdDeviation="12" flood-color="#312E81" flood-opacity="0.10"/>
    </filter>
  </defs>

  <rect width="1544" height="500" fill="url(#bg)"/>
  <path d="M705 500C785 353 865 281 999 245C1125 211 1276 229 1544 145V500H705Z" fill="#D9D0FF" opacity="0.46"/>
  <circle cx="1448" cy="122" r="74" stroke="#FFFFFF" stroke-width="11" opacity="0.42"/>
  <text x="1400" y="159" font-family="Arial, Helvetica, sans-serif" font-size="112" font-weight="700" fill="#FFFFFF" opacity="0.35">W</text>
  <g opacity="0.46" fill="#FFFFFF">
    <circle cx="1394" cy="250" r="3"/><circle cx="1420" cy="250" r="3"/><circle cx="1446" cy="250" r="3"/><circle cx="1472" cy="250" r="3"/>
    <circle cx="1394" cy="276" r="3"/><circle cx="1420" cy="276" r="3"/><circle cx="1446" cy="276" r="3"/><circle cx="1472" cy="276" r="3"/>
    <circle cx="1394" cy="302" r="3"/><circle cx="1420" cy="302" r="3"/><circle cx="1446" cy="302" r="3"/><circle cx="1472" cy="302" r="3"/>
  </g>

  <g transform="translate(58 42)">
    <rect width="72" height="72" rx="17" fill="url(#purple)" filter="url(#soft)"/>
    <rect x="19" y="23" width="35" height="29" rx="4" stroke="#FFFFFF" stroke-width="4"/>
    <circle cx="29" cy="33" r="4" fill="#FFFFFF"/>
    <path d="M21 51L34 40L43 48L54 36" stroke="#FFFFFF" stroke-width="4" stroke-linecap="round" stroke-linejoin="round"/>
    <path d="M57 16L60 24L68 27L60 30L57 38L54 30L46 27L54 24L57 16Z" fill="#FFFFFF"/>
  </g>
  <text x="150" y="78" font-family="Inter, Arial, Helvetica, sans-serif" font-size="44" font-weight="800" fill="#071432" letter-spacing="1">ALT TEXT</text>
  <text x="151" y="111" font-family="Inter, Arial, Helvetica, sans-serif" font-size="23" font-weight="800" fill="#4F46E5">AI FOR WORDPRESS</text>

  <text x="58" y="207" font-family="Inter, Arial, Helvetica, sans-serif" font-size="68" font-weight="850" fill="#071432">Better Alt Text.</text>
  <text x="58" y="281" font-family="Inter, Arial, Helvetica, sans-serif" font-size="68" font-weight="850" fill="#4F46E5">Better Accessibility.</text>
  <text x="60" y="334" font-family="Inter, Arial, Helvetica, sans-serif" font-size="25" font-weight="500" fill="#334155">AI-generated, SEO-friendly image ALT text for WordPress</text>
  <text x="60" y="369" font-family="Inter, Arial, Helvetica, sans-serif" font-size="25" font-weight="500" fill="#334155">that improves accessibility and saves hours of manual work.</text>

  <g font-family="Inter, Arial, Helvetica, sans-serif" font-size="18" font-weight="800" fill="#071432" text-anchor="middle">
    <g transform="translate(105 418)">
      <circle cx="0" cy="-29" r="30" fill="#EEE9FF"/>
      <path d="M-8-32L-2-38L0-47L4-38L12-34L4-30L0-20L-3-29Z" fill="#4F46E5"/>
      <text y="24">AI-powered</text>
    </g>
    <g transform="translate(296 418)">
      <circle cx="0" cy="-29" r="30" fill="#EEE9FF"/>
      <circle cx="0" cy="-29" r="15" stroke="#4F46E5" stroke-width="4"/>
      <circle cx="0" cy="-29" r="5" fill="#4F46E5"/>
      <path d="M12-42L22-47L18-36" stroke="#4F46E5" stroke-width="4" stroke-linecap="round"/>
      <text y="24">SEO-ready</text>
    </g>
    <g transform="translate(487 418)">
      <circle cx="0" cy="-29" r="30" fill="#EEE9FF"/>
      <path d="M0-45V-28L12-20" stroke="#4F46E5" stroke-width="4" stroke-linecap="round"/>
      <circle cx="0" cy="-29" r="16" stroke="#4F46E5" stroke-width="4"/>
      <text y="24">Bulk generate</text>
    </g>
    <g transform="translate(678 418)">
      <circle cx="0" cy="-29" r="30" fill="#EEE9FF"/>
      <path d="M0-48L19-40V-25C19-12 8-6 0-3C-8-6-19-12-19-25V-40L0-48Z" stroke="#4F46E5" stroke-width="4" stroke-linejoin="round"/>
      <path d="M-8-28L-2-22L10-34" stroke="#4F46E5" stroke-width="4" stroke-linecap="round"/>
      <text y="24">Private by design</text>
    </g>
  </g>

  <g transform="translate(782 44)" filter="url(#shadow)">
    <rect width="565" height="275" rx="24" fill="#FFFFFF"/>
    <text x="82" y="55" font-family="Inter, Arial, Helvetica, sans-serif" font-size="25" font-weight="850" fill="#071432">Generate descriptive ALT text</text>
    <path d="M38 36L45 51L61 58L45 64L38 80L32 64L16 58L32 51L38 36Z" fill="#4F46E5"/>
    <rect x="36" y="93" width="178" height="142" rx="13" fill="url(#photo)"/>
    <path d="M36 216L92 160L130 193L171 132L214 184V235H36V216Z" fill="#166534" opacity="0.90"/>
    <path d="M36 190C78 176 119 179 158 164C184 154 201 141 214 130V235H36V190Z" fill="#0EA5E9" opacity="0.45"/>
    <circle cx="128" cy="71" r="22" fill="#FFFFFF" opacity="0.82"/>
    <text x="242" y="112" font-family="Inter, Arial, Helvetica, sans-serif" font-size="22" font-weight="850" fill="#071432">Alt Text</text>
    <text x="338" y="112" font-family="Inter, Arial, Helvetica, sans-serif" font-size="18" font-weight="800" fill="#4F46E5">(Generated)</text>
    <rect x="242" y="133" width="278" height="104" rx="11" fill="#FFFFFF" stroke="#CBD5E1" stroke-width="2"/>
    <text x="258" y="162" font-family="Inter, Arial, Helvetica, sans-serif" font-size="17" font-weight="500" fill="#071432">Mountain lake image described</text>
    <text x="258" y="188" font-family="Inter, Arial, Helvetica, sans-serif" font-size="17" font-weight="500" fill="#071432">with clear, SEO-friendly alt text</text>
    <text x="258" y="214" font-family="Inter, Arial, Helvetica, sans-serif" font-size="17" font-weight="500" fill="#071432">for screen readers.</text>
    <rect x="242" y="250" width="227" height="36" rx="16" fill="#ECE7FF"/>
    <path d="M261 268L270 277L286 259" stroke="#4F46E5" stroke-width="3.5" stroke-linecap="round"/>
    <text x="298" y="273" font-family="Inter, Arial, Helvetica, sans-serif" font-size="16" font-weight="800" fill="#4F46E5">SEO + accessibility ready</text>
  </g>

  <g transform="translate(836 346)" filter="url(#shadow)">
    <rect width="466" height="108" rx="22" fill="#FFFFFF"/>
    <circle cx="61" cy="54" r="36" fill="#EEE9FF"/>
    <path d="M47 38H69V68H47V38ZM58 29H80V59H69V38H58V29Z" stroke="#4F46E5" stroke-width="4" stroke-linejoin="round"/>
    <text x="118" y="46" font-family="Inter, Arial, Helvetica, sans-serif" font-size="23" font-weight="850" fill="#071432">Bulk ALT text generation</text>
    <path d="M118 61H355" stroke="#E2E8F0" stroke-width="2"/>
    <text x="118" y="87" font-family="Inter, Arial, Helvetica, sans-serif" font-size="19" font-weight="700" fill="#071432">12 / 12 images processed</text>
    <rect x="335" y="71" width="99" height="32" rx="15" fill="#DDF8EA"/>
    <circle cx="359" cy="87" r="10" fill="#059669"/>
    <path d="M354 87L358 91L365 82" stroke="#FFFFFF" stroke-width="3" stroke-linecap="round"/>
    <text x="377" y="92" font-family="Inter, Arial, Helvetica, sans-serif" font-size="15" font-weight="800" fill="#047857">Complete</text>
  </g>
</svg>
